<?xml version="1.0" encoding="UTF-8"?><svg id="Ebene_2" xmlns="http://www.w3.org/2000/svg" xmlns:xlink="http://www.w3.org/1999/xlink" viewBox="0 0 360 360"><defs><style>.cls-1{fill:#dadada;opacity:.85;}.cls-2,.cls-3{fill:#fff;}.cls-4{opacity:.5;}.cls-5{fill:url(#Unbenannter_Verlauf_32);}.cls-6{fill:#009fe3;}.cls-7{fill:url(#Unbenannter_Verlauf_29);}.cls-8{fill:none;stroke:#dadada;stroke-width:4px;}.cls-3{font-family:Eurostile-BoldExtendedTwo, 'Eurostile Extended #2';font-size:68.7px;font-weight:700;}</style><linearGradient id="Unbenannter_Verlauf_32" x1="164.48" y1="236.56" x2="245.29" y2="-110.95" gradientUnits="userSpaceOnUse"><stop offset="0" stop-color="#52b5e7"/><stop offset=".75" stop-color="#2d5ba7"/></linearGradient><linearGradient id="Unbenannter_Verlauf_29" x1="180" y1="177.29" x2="180" y2="537.29" gradientUnits="userSpaceOnUse"><stop offset="0" stop-color="#65f92e"/><stop offset=".41" stop-color="#00691e"/></linearGradient></defs><g id="Ebene_1-2"><path class="cls-5" d="m360,17.72v306.28H0V17.72C0,7.94,7.94,0,17.72,0h324.56c9.78,0,17.72,7.94,17.72,17.72Z"/><path class="cls-2" d="m254.07,45.02c-15.39,15.39,15.39,20.52,15.39,20.52h61.57s31.49,3.63,15.39-20.52c-10.26-15.39,0-25.65-20.52-25.65-18.5,0-25.65,25.65-25.65,15.39s5.13-20.52-10.26-15.39-15.39,10.26-20.52,15.39-15.39,10.26-15.39,10.26Z"/><path class="cls-2" d="m57.06,138.31c-10.95,10.95,10.95,14.59,10.95,14.59h43.78s14.2,2.19,10.95-14.59c-2.23-11.5,3.26-19.21-14.74-10.21-11.77,5.88-9,9-18,9-7.3,0,1.95-12.65-9-9s-14.35-3.65-18,0-5.94,10.21-5.94,10.21Z"/><path class="cls-7" d="m360,198v144.28c0,9.78-7.94,17.72-17.72,17.72H17.72c-9.78,0-17.72-7.94-17.72-17.72v-117.28s62.87-62.54,126-45c162,45,234,18,234,18Z"/><g class="cls-4"><rect class="cls-2" x="72" y="45" width="216" height="99" rx="6.96" ry="6.96"/></g><rect class="cls-8" x="72" y="45" width="216" height="99" rx="6.96" ry="6.96"/><path class="cls-8" d="m281.04,46c3.29,0,5.96,2.68,5.96,5.96v85.07c0,3.29-2.68,5.96-5.96,5.96H78.96c-3.29,0-5.96-2.68-5.96-5.96V51.96c0-3.29,2.68-5.96,5.96-5.96h202.07m0-1H78.96c-3.85,0-6.96,3.12-6.96,6.96v85.07c0,3.85,3.12,6.96,6.96,6.96h202.07c3.85,0,6.96-3.12,6.96-6.96V51.96c0-3.85-3.12-6.96-6.96-6.96h0Z"/><path class="cls-1" d="m360,324v18.28c0,9.78-7.94,17.72-17.72,17.72H17.72c-9.78,0-17.72-7.94-17.72-17.72v-18.28h360Z"/><rect class="cls-6" x="9" y="333" width="18" height="18"/><text class="cls-3" transform="translate(90 282.48)"><tspan x="0" y="0">WIT</tspan></text></g></svg>